<svg width="139" height="34" viewBox="0 0 139 34" fill="none" xmlns="http://www.w3.org/2000/svg">
<path d="M70.0226 18.7766C67.2358 18.7766 64.9589 20.9252 64.9589 23.8781C64.9589 26.831 67.2358 28.9797 70.0226 28.9797C72.8095 28.9797 75.0864 26.819 75.0864 23.8781C75.0864 20.9372 72.8095 18.7766 70.0226 18.7766ZM70.0226 26.975C68.4928 26.975 67.1765 25.7027 67.1765 23.8781C67.1765 22.0536 68.4928 20.7812 70.0226 20.7812C71.5524 20.7812 72.8688 22.0416 72.8688 23.8781C72.8688 25.7147 71.5524 26.975 70.0226 26.975ZM58.982 18.7766C56.1951 18.7766 53.9182 20.9252 53.9182 23.8781C53.9182 26.831 56.1951 28.9797 58.982 28.9797C61.7688 28.9797 64.0457 26.819 64.0457 23.8781C64.0457 20.9372 61.7688 18.7766 58.982 18.7766ZM58.982 26.975C57.4522 26.975 56.1358 25.7027 56.1358 23.8781C56.1358 22.0536 57.4522 20.7812 58.982 20.7812C60.5118 20.7812 61.8281 22.0416 61.8281 23.8781C61.8281 25.7147 60.5118 26.975 58.982 26.975ZM45.8423 20.337V22.4977H50.9653C50.8112 23.7221 50.408 24.6103 49.8032 25.2225C49.056 25.9787 47.8939 26.807 45.8541 26.807C42.6997 26.807 40.233 24.2382 40.233 21.0453C40.233 17.8523 42.6997 15.2835 45.8541 15.2835C47.55 15.2835 48.7951 15.9557 49.7083 16.832L51.2144 15.3075C49.9336 14.0711 48.2378 13.1229 45.8423 13.1229C41.5256 13.1229 37.8968 16.6759 37.8968 21.0573C37.8968 25.4386 41.5256 28.9917 45.8423 28.9917C48.1785 28.9917 49.9336 28.2234 51.3092 26.771C52.7205 25.3426 53.1592 23.3259 53.1592 21.7055C53.1592 21.2013 53.1237 20.7332 53.0406 20.349H45.8423V20.337ZM99.575 22.0175C99.16 20.8772 97.8792 18.7646 95.2584 18.7646C92.6376 18.7646 90.503 20.8292 90.503 23.8661C90.503 26.723 92.6376 28.9677 95.5074 28.9677C97.8199 28.9677 99.16 27.5392 99.7055 26.711L97.9859 25.5466C97.4167 26.3989 96.634 26.963 95.5074 26.963C94.3808 26.963 93.5744 26.4349 93.0645 25.4146L99.8122 22.5937L99.5869 22.0175H99.575ZM92.6969 23.7221C92.6376 21.7535 94.203 20.7452 95.3296 20.7452C96.2071 20.7452 96.9542 21.1893 97.2033 21.8255L92.6969 23.7221ZM87.218 28.6676H89.4357V13.663H87.218V28.6676ZM83.5892 19.9049H83.5181C83.02 19.3047 82.0713 18.7646 80.8617 18.7646C78.3357 18.7646 76.0232 21.0092 76.0232 23.8901C76.0232 26.771 78.3357 28.9797 80.8617 28.9797C82.0713 28.9797 83.02 28.4395 83.5181 27.8153H83.5892V28.5475C83.5892 30.5041 82.5575 31.5484 80.8972 31.5484C79.5453 31.5484 78.7033 30.5641 78.3594 29.7359L76.4264 30.5521C76.9838 31.9085 78.4543 33.565 80.8972 33.565C83.4943 33.565 85.6882 32.0166 85.6882 28.2474V19.0767H83.5892V19.9049ZM81.0514 26.963C79.5216 26.963 78.2409 25.6667 78.2409 23.8901C78.2409 22.1136 79.5216 20.7812 81.0514 20.7812C82.5812 20.7812 83.7434 22.1016 83.7434 23.8901C83.7434 25.6787 82.5575 26.963 81.0514 26.963ZM104.663 13.663V28.6676H106.88V22.9778H109.975C112.43 22.9778 114.837 21.1773 114.837 18.3204C114.837 15.4636 112.43 13.663 109.975 13.663H104.663ZM110.023 20.9012H106.88V15.7517H110.023C111.683 15.7517 112.62 17.1441 112.62 18.3204C112.62 19.4968 111.683 20.8892 110.023 20.8892V20.9012ZM123.696 18.7406C122.095 18.7406 120.435 19.4608 119.747 21.0333L121.716 21.8615C122.131 21.0333 122.913 20.7572 123.732 20.7572C124.87 20.7572 126.044 21.4534 126.056 22.6898V22.8458C125.653 22.6177 124.799 22.2696 123.744 22.2696C121.621 22.2696 119.474 23.446 119.474 25.6426C119.474 27.6473 121.206 28.9436 123.151 28.9436C124.633 28.9436 125.463 28.2714 125.973 27.4792H126.044V28.6436H128.179V22.8938C128.179 20.229 126.21 18.7406 123.672 18.7406H123.696ZM123.423 26.963C122.7 26.963 121.692 26.5909 121.692 25.6907C121.692 24.5383 122.949 24.0942 124.04 24.0942C125.012 24.0942 125.475 24.3102 126.056 24.5983C125.89 25.9907 124.704 26.975 123.423 26.975V26.963ZM135.97 19.0647L133.432 25.5706H133.361L130.728 19.0647H128.345L132.294 28.1634L130.041 33.2169H132.353L138.437 19.0647H135.97ZM116.035 28.6676H118.253V13.663H116.035V28.6676Z" fill="white"/>
<path d="M13.7875 15.9796L1.15777 29.5437C1.54912 31.0201 2.87732 32.1004 4.45455 32.1004C5.08308 32.1004 5.67602 31.9324 6.18596 31.6203L6.22153 31.5963L20.4285 23.3018L13.7757 15.9675L13.7875 15.9796Z" fill="#EA4335"/>
<path d="M26.5596 13.6749H26.5477L20.4167 10.0618L13.5029 16.2916L20.4404 23.3138L26.5477 19.7487C27.615 19.1605 28.3384 18.0202 28.3384 16.7118C28.3384 15.4034 27.6269 14.263 26.5596 13.6869V13.6749Z" fill="#FBBC04"/>
<path d="M1.15777 3.80787C1.08662 4.09596 1.03918 4.38405 1.03918 4.69614V28.6674C1.03918 28.9795 1.07476 29.2676 1.15777 29.5557L14.2144 16.3397L1.15777 3.80787Z" fill="#4285F4"/>
<path d="M13.8824 16.6758L20.4167 10.0618L6.22153 1.73124C5.7116 1.41915 5.1068 1.23909 4.45455 1.23909C2.87732 1.23909 1.54912 2.33143 1.15777 3.79587L13.8824 16.6638V16.6758Z" fill="#34A853"/>
<path d="M39.1539 9.79793H38.2764V7.3852H38.976C39.5927 6.84503 39.8892 5.93276 39.8773 4.62436V1.05929H44.6327V7.37319H45.4273V9.78592H44.5497V8.26146H39.1539V9.79793ZM40.7905 4.62436C40.8023 5.76471 40.577 6.67698 40.1145 7.3852H43.7078V1.94755H40.7905V4.62436Z" fill="white"/>
<path d="M52.5545 7.33718C51.8548 8.0694 50.9891 8.42951 49.9455 8.42951C48.902 8.42951 48.0363 8.0694 47.3366 7.33718C46.6369 6.60496 46.293 5.71669 46.293 4.67238C46.293 3.62806 46.6369 2.72779 47.3366 2.00757C48.0363 1.27535 48.902 0.915243 49.9455 0.915243C50.9891 0.915243 51.843 1.27535 52.5545 2.00757C53.2542 2.73979 53.61 3.62806 53.61 4.67238C53.61 5.71669 53.266 6.61696 52.5664 7.33718H52.5545ZM48.0125 6.737C48.5343 7.27716 49.1866 7.54124 49.9455 7.54124C50.7045 7.54124 51.3568 7.27716 51.8785 6.737C52.4003 6.19684 52.6731 5.51263 52.6731 4.67238C52.6731 3.83212 52.4122 3.14792 51.8785 2.60775C51.3568 2.06759 50.7045 1.80351 49.9455 1.80351C49.1866 1.80351 48.5343 2.06759 48.0125 2.60775C47.4907 3.14792 47.218 3.83212 47.218 4.67238C47.218 5.51263 47.4789 6.19684 48.0125 6.737Z" fill="white"/>
<path d="M58.2112 8.42951C57.1676 8.42951 56.2901 8.0694 55.5785 7.34919C54.867 6.62897 54.5112 5.7407 54.5112 4.66037C54.5112 3.58005 54.867 2.69178 55.5785 1.97156C56.2901 1.25134 57.1676 0.891235 58.2112 0.891235C59.2548 0.891235 60.1561 1.28735 60.8202 2.06759L60.1798 2.69178C59.6936 2.07959 59.0413 1.7795 58.1994 1.7795C57.4285 1.7795 56.7644 2.04358 56.2308 2.57174C55.6971 3.0999 55.4362 3.79611 55.4362 4.64837C55.4362 5.50063 55.6971 6.19684 56.2308 6.725C56.7644 7.25316 57.4167 7.51724 58.1994 7.51724C59.0532 7.51724 59.7885 7.16913 60.3814 6.47292L61.0218 7.12112C60.7016 7.51724 60.2865 7.82933 59.8003 8.0574C59.3141 8.28547 58.7804 8.40551 58.1994 8.40551L58.2112 8.42951Z" fill="white"/>
<path d="M64.7336 8.27347H63.8205V1.95956H61.8282V1.07129H66.7141V1.95956H64.7218V8.27347H64.7336Z" fill="white"/>
<path d="M72.9993 1.07129L70.3073 7.14512C69.9397 7.99738 69.3823 8.42951 68.6471 8.42951C68.4336 8.42951 68.1964 8.3815 67.9355 8.27347L68.1727 7.42121C68.3269 7.50524 68.481 7.55325 68.6471 7.55325C68.8605 7.55325 69.0265 7.51724 69.1333 7.43321C69.24 7.34919 69.3586 7.19314 69.4535 6.97707L69.7144 6.4009L67.3189 1.08329H68.398L70.1531 5.21254H70.1887L71.9083 1.08329H72.9874L72.9993 1.07129Z" fill="white"/>
<path d="M74.031 8.27347V1.07129H79.1778V8.27347H78.2646V1.95956H74.9442V8.27347H74.031Z" fill="white"/>
<path d="M80.8025 8.27347V1.07129H81.7156V4.15622H85.2733V1.07129H86.1864V8.27347H85.2733V5.02048H81.7156V8.27347H80.8025Z" fill="white"/>
<path d="M93.6457 7.33718C92.946 8.0694 92.0803 8.42951 91.0367 8.42951C89.9931 8.42951 89.1274 8.0694 88.4277 7.33718C87.7281 6.60496 87.3842 5.71669 87.3842 4.67238C87.3842 3.62806 87.7281 2.72779 88.4277 2.00757C89.1274 1.27535 89.9931 0.915243 91.0367 0.915243C92.0803 0.915243 92.9341 1.27535 93.6457 2.00757C94.3453 2.73979 94.7011 3.62806 94.7011 4.67238C94.7011 5.71669 94.3572 6.61696 93.6575 7.33718H93.6457ZM89.1037 6.737C89.6255 7.27716 90.2777 7.54124 91.0367 7.54124C91.7957 7.54124 92.4479 7.27716 92.9697 6.737C93.4915 6.19684 93.7643 5.51263 93.7643 4.67238C93.7643 3.83212 93.5033 3.14792 92.9697 2.60775C92.4479 2.06759 91.7957 1.80351 91.0367 1.80351C90.2777 1.80351 89.6255 2.06759 89.1037 2.60775C88.5819 3.14792 88.3092 3.83212 88.3092 4.67238C88.3092 5.51263 88.57 6.19684 89.1037 6.737Z" fill="white"/>
<path d="M98.4248 8.27347V1.07129H100.998C101.556 1.07129 102.042 1.26335 102.445 1.62346C102.848 1.99557 103.062 2.46371 103.062 3.02788C103.062 3.37598 102.979 3.67608 102.801 3.92815C102.623 4.19223 102.398 4.38429 102.101 4.51633V4.55234C102.457 4.67238 102.741 4.87644 102.967 5.17653C103.192 5.47662 103.311 5.81272 103.311 6.20884C103.311 6.79702 103.097 7.28917 102.67 7.67328C102.243 8.0574 101.733 8.26146 101.152 8.26146H98.4367L98.4248 8.27347ZM99.338 4.15622H100.998C101.342 4.15622 101.615 4.03619 101.828 3.80812C102.042 3.58005 102.137 3.32797 102.137 3.05189C102.137 2.7758 102.042 2.52373 101.828 2.29566C101.627 2.06759 101.366 1.94755 101.034 1.94755H99.338V4.15622ZM101.176 7.3852C101.532 7.3852 101.816 7.26516 102.03 7.01309C102.243 6.76101 102.362 6.49693 102.362 6.19684C102.362 5.89675 102.255 5.63267 102.018 5.3926C101.793 5.15252 101.496 5.02048 101.129 5.02048H99.3261V7.3852H101.176Z" fill="white"/>
<path d="M20.4167 10.0618L26.5477 13.6749H26.5596V13.6869C27.6269 14.263 28.3384 15.4034 28.3384 16.7118C28.3384 18.0202 27.615 19.1605 26.5477 19.7487L20.4404 23.3138L13.5029 16.2916L20.4167 10.0618ZM20.4167 10.0618L13.8824 16.6758V16.6638L1.15777 3.79587C1.54912 2.33143 2.87732 1.23909 4.45455 1.23909C5.1068 1.23909 5.7116 1.41915 6.22153 1.73124L20.4167 10.0618ZM70.0226 18.7766C67.2358 18.7766 64.9589 20.9252 64.9589 23.8781C64.9589 26.831 67.2358 28.9797 70.0226 28.9797C72.8095 28.9797 75.0864 26.819 75.0864 23.8781C75.0864 20.9372 72.8095 18.7766 70.0226 18.7766ZM70.0226 26.975C68.4928 26.975 67.1765 25.7027 67.1765 23.8781C67.1765 22.0536 68.4928 20.7812 70.0226 20.7812C71.5524 20.7812 72.8688 22.0416 72.8688 23.8781C72.8688 25.7147 71.5524 26.975 70.0226 26.975ZM58.982 18.7766C56.1951 18.7766 53.9182 20.9252 53.9182 23.8781C53.9182 26.831 56.1951 28.9797 58.982 28.9797C61.7688 28.9797 64.0457 26.819 64.0457 23.8781C64.0457 20.9372 61.7688 18.7766 58.982 18.7766ZM58.982 26.975C57.4522 26.975 56.1358 25.7027 56.1358 23.8781C56.1358 22.0536 57.4522 20.7812 58.982 20.7812C60.5118 20.7812 61.8281 22.0416 61.8281 23.8781C61.8281 25.7147 60.5118 26.975 58.982 26.975ZM45.8423 20.337V22.4977H50.9653C50.8112 23.7221 50.408 24.6103 49.8032 25.2225C49.056 25.9787 47.8939 26.807 45.8541 26.807C42.6997 26.807 40.233 24.2382 40.233 21.0453C40.233 17.8523 42.6997 15.2835 45.8541 15.2835C47.55 15.2835 48.7951 15.9557 49.7083 16.832L51.2144 15.3075C49.9336 14.0711 48.2378 13.1229 45.8423 13.1229C41.5256 13.1229 37.8968 16.6759 37.8968 21.0573C37.8968 25.4386 41.5256 28.9917 45.8423 28.9917C48.1785 28.9917 49.9336 28.2234 51.3092 26.771C52.7205 25.3426 53.1592 23.3259 53.1592 21.7055C53.1592 21.2013 53.1237 20.7332 53.0406 20.349H45.8423V20.337ZM99.575 22.0176C99.16 20.8772 97.8792 18.7646 95.2584 18.7646C92.6376 18.7646 90.503 20.8292 90.503 23.8661C90.503 26.723 92.6376 28.9677 95.5074 28.9677C97.8199 28.9677 99.16 27.5392 99.7055 26.711L97.9859 25.5466C97.4167 26.3989 96.634 26.963 95.5074 26.963C94.3808 26.963 93.5744 26.4349 93.0645 25.4146L99.8122 22.5937L99.5869 22.0176H99.575ZM92.6969 23.7221C92.6376 21.7535 94.203 20.7452 95.3296 20.7452C96.2071 20.7452 96.9542 21.1893 97.2033 21.8255L92.6969 23.7221ZM87.218 28.6676H89.4357V13.663H87.218V28.6676ZM83.5892 19.9049H83.5181C83.02 19.3047 82.0713 18.7646 80.8617 18.7646C78.3357 18.7646 76.0232 21.0092 76.0232 23.8901C76.0232 26.771 78.3357 28.9797 80.8617 28.9797C82.0713 28.9797 83.02 28.4395 83.5181 27.8153H83.5892V28.5475C83.5892 30.5041 82.5575 31.5484 80.8972 31.5484C79.5453 31.5484 78.7033 30.5641 78.3594 29.7359L76.4264 30.5521C76.9838 31.9085 78.4543 33.565 80.8972 33.565C83.4943 33.565 85.6883 32.0166 85.6883 28.2474V19.0767H83.5892V19.9049ZM81.0514 26.963C79.5216 26.963 78.2409 25.6667 78.2409 23.8901C78.2409 22.1136 79.5216 20.7812 81.0514 20.7812C82.5812 20.7812 83.7434 22.1016 83.7434 23.8901C83.7434 25.6787 82.5575 26.963 81.0514 26.963ZM104.663 13.663V28.6676H106.88V22.9778H109.975C112.43 22.9778 114.837 21.1773 114.837 18.3204C114.837 15.4636 112.43 13.663 109.975 13.663H104.663ZM110.023 20.9012H106.88V15.7517H110.023C111.683 15.7517 112.62 17.1441 112.62 18.3204C112.62 19.4968 111.683 20.8892 110.023 20.8892V20.9012ZM123.696 18.7406C122.095 18.7406 120.435 19.4608 119.747 21.0333L121.716 21.8615C122.131 21.0333 122.913 20.7572 123.732 20.7572C124.87 20.7572 126.044 21.4534 126.056 22.6898V22.8458C125.653 22.6177 124.799 22.2696 123.744 22.2696C121.621 22.2696 119.474 23.446 119.474 25.6426C119.474 27.6473 121.206 28.9436 123.151 28.9436C124.633 28.9436 125.463 28.2714 125.973 27.4792H126.044V28.6436H128.179V22.8938C128.179 20.229 126.21 18.7406 123.672 18.7406H123.696ZM123.423 26.963C122.7 26.963 121.692 26.5909 121.692 25.6907C121.692 24.5383 122.949 24.0942 124.04 24.0942C125.012 24.0942 125.475 24.3102 126.056 24.5983C125.89 25.9907 124.704 26.975 123.423 26.975V26.963ZM135.97 19.0647L133.432 25.5706H133.361L130.728 19.0647H128.345L132.294 28.1634L130.041 33.2169H132.353L138.437 19.0647H135.97ZM116.035 28.6676H118.253V13.663H116.035V28.6676ZM13.7875 15.9796L1.15777 29.5437C1.54912 31.0201 2.87732 32.1004 4.45455 32.1004C5.08308 32.1004 5.67602 31.9324 6.18596 31.6203L6.22153 31.5963L20.4285 23.3018L13.7757 15.9675L13.7875 15.9796ZM1.15777 3.80787C1.08662 4.09596 1.03918 4.38405 1.03918 4.69614V28.6674C1.03918 28.9795 1.07476 29.2676 1.15777 29.5557L14.2144 16.3397L1.15777 3.80787ZM39.1539 9.79793H38.2764V7.3852H38.976C39.5927 6.84503 39.8892 5.93276 39.8773 4.62436V1.05929H44.6327V7.37319H45.4273V9.78592H44.5497V8.26146H39.1539V9.79793ZM40.7905 4.62436C40.8023 5.76471 40.577 6.67698 40.1145 7.3852H43.7078V1.94755H40.7905V4.62436ZM52.5545 7.33718C51.8548 8.0694 50.9891 8.42951 49.9455 8.42951C48.902 8.42951 48.0363 8.0694 47.3366 7.33718C46.6369 6.60496 46.293 5.71669 46.293 4.67238C46.293 3.62806 46.6369 2.72779 47.3366 2.00757C48.0363 1.27535 48.902 0.915243 49.9455 0.915243C50.9891 0.915243 51.843 1.27535 52.5545 2.00757C53.2542 2.73979 53.61 3.62806 53.61 4.67238C53.61 5.71669 53.266 6.61696 52.5664 7.33718H52.5545ZM48.0125 6.737C48.5343 7.27716 49.1866 7.54124 49.9455 7.54124C50.7045 7.54124 51.3568 7.27716 51.8785 6.737C52.4003 6.19684 52.6731 5.51263 52.6731 4.67238C52.6731 3.83212 52.4122 3.14792 51.8785 2.60775C51.3568 2.06759 50.7045 1.80351 49.9455 1.80351C49.1866 1.80351 48.5343 2.06759 48.0125 2.60775C47.4908 3.14792 47.218 3.83212 47.218 4.67238C47.218 5.51263 47.4789 6.19684 48.0125 6.737ZM58.2112 8.42951C57.1676 8.42951 56.2901 8.0694 55.5785 7.34919C54.867 6.62897 54.5112 5.7407 54.5112 4.66037C54.5112 3.58005 54.867 2.69178 55.5785 1.97156C56.2901 1.25134 57.1676 0.891235 58.2112 0.891235C59.2548 0.891235 60.1561 1.28735 60.8202 2.06759L60.1798 2.69178C59.6936 2.07959 59.0413 1.7795 58.1994 1.7795C57.4285 1.7795 56.7644 2.04358 56.2308 2.57174C55.6971 3.0999 55.4362 3.79611 55.4362 4.64837C55.4362 5.50063 55.6971 6.19684 56.2308 6.725C56.7644 7.25316 57.4167 7.51724 58.1994 7.51724C59.0532 7.51724 59.7885 7.16913 60.3814 6.47292L61.0218 7.12112C60.7016 7.51724 60.2865 7.82933 59.8003 8.0574C59.3141 8.28547 58.7804 8.40551 58.1994 8.40551L58.2112 8.42951ZM64.7336 8.27347H63.8205V1.95956H61.8282V1.07129H66.7141V1.95956H64.7218V8.27347H64.7336ZM72.9993 1.07129L70.3073 7.14512C69.9397 7.99738 69.3823 8.42951 68.6471 8.42951C68.4336 8.42951 68.1964 8.3815 67.9355 8.27347L68.1727 7.42121C68.3269 7.50524 68.481 7.55325 68.6471 7.55325C68.8605 7.55325 69.0265 7.51724 69.1333 7.43321C69.24 7.34919 69.3586 7.19314 69.4535 6.97707L69.7144 6.4009L67.3189 1.08329H68.398L70.1531 5.21254H70.1887L71.9083 1.08329H72.9874L72.9993 1.07129ZM74.031 8.27347V1.07129H79.1778V8.27347H78.2646V1.95956H74.9441V8.27347H74.031ZM80.8025 8.27347V1.07129H81.7156V4.15622H85.2733V1.07129H86.1864V8.27347H85.2733V5.02048H81.7156V8.27347H80.8025ZM93.6457 7.33718C92.946 8.0694 92.0803 8.42951 91.0367 8.42951C89.9931 8.42951 89.1274 8.0694 88.4277 7.33718C87.7281 6.60496 87.3842 5.71669 87.3842 4.67238C87.3842 3.62806 87.7281 2.72779 88.4277 2.00757C89.1274 1.27535 89.9931 0.915243 91.0367 0.915243C92.0803 0.915243 92.9341 1.27535 93.6457 2.00757C94.3453 2.73979 94.7011 3.62806 94.7011 4.67238C94.7011 5.71669 94.3572 6.61696 93.6575 7.33718H93.6457ZM89.1037 6.737C89.6255 7.27716 90.2777 7.54124 91.0367 7.54124C91.7957 7.54124 92.4479 7.27716 92.9697 6.737C93.4915 6.19684 93.7643 5.51263 93.7643 4.67238C93.7643 3.83212 93.5034 3.14792 92.9697 2.60775C92.4479 2.06759 91.7957 1.80351 91.0367 1.80351C90.2777 1.80351 89.6255 2.06759 89.1037 2.60775C88.5819 3.14792 88.3092 3.83212 88.3092 4.67238C88.3092 5.51263 88.57 6.19684 89.1037 6.737ZM98.4248 8.27347V1.07129H100.998C101.556 1.07129 102.042 1.26335 102.445 1.62346C102.848 1.99557 103.062 2.46371 103.062 3.02788C103.062 3.37598 102.979 3.67608 102.801 3.92815C102.623 4.19223 102.398 4.38429 102.101 4.51633V4.55234C102.457 4.67238 102.741 4.87644 102.967 5.17653C103.192 5.47662 103.311 5.81272 103.311 6.20884C103.311 6.79702 103.097 7.28917 102.67 7.67328C102.243 8.0574 101.733 8.26146 101.152 8.26146H98.4367L98.4248 8.27347ZM99.338 4.15622H100.998C101.342 4.15622 101.615 4.03619 101.828 3.80812C102.042 3.58005 102.137 3.32797 102.137 3.05189C102.137 2.7758 102.042 2.52373 101.828 2.29566C101.627 2.06759 101.366 1.94755 101.034 1.94755H99.338V4.15622ZM101.176 7.3852C101.532 7.3852 101.816 7.26516 102.03 7.01309C102.243 6.76101 102.362 6.49693 102.362 6.19684C102.362 5.89675 102.255 5.63267 102.018 5.3926C101.793 5.15252 101.496 5.02048 101.129 5.02048H99.3261V7.3852H101.176Z" stroke="white" stroke-width="0.167558" stroke-miterlimit="10"/>
</svg>
