<svg width="58" height="59" viewBox="0 0 58 59" fill="none" xmlns="http://www.w3.org/2000/svg">
<path d="M28.5498 45.6986C25.3895 45.6986 22.8184 48.2608 22.8184 51.4301C22.8184 54.5993 25.3805 57.1615 28.5498 57.1615C31.7191 57.1615 34.2813 54.5993 34.2813 51.4301C34.2813 48.2608 31.7191 45.6986 28.5498 45.6986Z" fill="#BFD1E2"/>
<path d="M28.55 58.0459C24.8986 58.0459 21.9258 55.073 21.9258 51.4217C21.9258 47.7703 24.8986 44.7975 28.55 44.7975C32.2013 44.7975 35.1742 47.7703 35.1742 51.4217C35.1742 55.073 32.2013 58.0459 28.55 58.0459ZM28.55 46.5919C25.8807 46.5919 23.7113 48.7613 23.7113 51.4306C23.7113 54.0999 25.8807 56.2693 28.55 56.2693C31.2193 56.2693 33.3887 54.0999 33.3887 51.4306C33.3887 48.7613 31.2193 46.5919 28.55 46.5919Z" fill="#BFD1E2"/>
<path d="M28.5498 1.85596C25.3895 1.85596 22.8184 4.41815 22.8184 7.58741C22.8184 10.7567 25.3805 13.3189 28.5498 13.3189C31.7191 13.3189 34.2813 10.7567 34.2813 7.58741C34.2813 4.41815 31.7191 1.85596 28.5498 1.85596Z" fill="#BFD1E2"/>
<path d="M28.55 14.2026C24.8986 14.2026 21.9258 11.2298 21.9258 7.57843C21.9258 3.92708 24.8986 0.954224 28.55 0.954224C32.2013 0.954224 35.1742 3.92708 35.1742 7.57843C35.1742 11.2298 32.2013 14.2026 28.55 14.2026ZM28.55 2.74865C25.8807 2.74865 23.7113 4.91803 23.7113 7.58735C23.7113 10.2567 25.8807 12.4261 28.55 12.4261C31.2193 12.4261 33.3887 10.2567 33.3887 7.58735C33.3887 4.91803 31.2193 2.74865 28.55 2.74865Z" fill="#BFD1E2"/>
<path d="M50.4678 35.2367C53.6332 35.2367 56.1992 32.6707 56.1992 29.5053C56.1992 26.3399 53.6332 23.7738 50.4678 23.7738C47.3024 23.7738 44.7363 26.3399 44.7363 29.5053C44.7363 32.6707 47.3024 35.2367 50.4678 35.2367Z" fill="#BFD1E2"/>
<path d="M50.468 36.1289C46.8166 36.1289 43.8438 33.156 43.8438 29.5047C43.8438 25.8533 46.8166 22.8805 50.468 22.8805C54.1193 22.8805 57.0922 25.8533 57.0922 29.5047C57.0922 33.156 54.1193 36.1289 50.468 36.1289ZM50.468 24.6749C47.7986 24.6749 45.6292 26.8443 45.6292 29.5136C45.6292 32.1829 47.7986 34.3523 50.468 34.3523C53.1373 34.3523 55.3067 32.1829 55.3067 29.5136C55.3067 26.8443 53.1373 24.6749 50.468 24.6749Z" fill="#BFD1E2"/>
<path d="M6.62403 35.2367C9.78943 35.2367 12.3555 32.6707 12.3555 29.5053C12.3555 26.3399 9.78943 23.7738 6.62403 23.7738C3.45864 23.7738 0.892578 26.3399 0.892578 29.5053C0.892578 32.6707 3.45864 35.2367 6.62403 35.2367Z" fill="#BFD1E2"/>
<path d="M6.6242 36.1289C2.97286 36.1289 0 33.156 0 29.5047C0 25.8533 2.97286 22.8805 6.6242 22.8805C10.2755 22.8805 13.2484 25.8533 13.2484 29.5047C13.2484 33.156 10.2755 36.1289 6.6242 36.1289ZM6.6242 24.6749C3.95488 24.6749 1.7855 26.8443 1.7855 29.5136C1.7855 32.1829 3.95488 34.3523 6.6242 34.3523C9.29352 34.3523 11.4629 32.1829 11.4629 29.5136C11.4629 26.8443 9.29352 24.6749 6.6242 24.6749Z" fill="#BFD1E2"/>
<path d="M42.182 44.0293C41.9499 44.0293 41.7267 43.9401 41.5482 43.7704L14.2836 16.5059C13.9354 16.1577 13.9354 15.5953 14.2836 15.2471C14.6318 14.8989 15.1942 14.8989 15.5424 15.2471L42.8069 42.5117C43.1551 42.8598 43.1551 43.4223 42.8069 43.7704C42.6284 43.949 42.4052 44.0293 42.1731 44.0293H42.182Z" fill="#BFD1E2"/>
<path d="M14.9174 44.0293C14.6853 44.0293 14.4621 43.9401 14.2836 43.7704C13.9354 43.4223 13.9354 42.8598 14.2836 42.5117L41.5482 15.2471C41.8963 14.8989 42.4588 14.8989 42.8069 15.2471C43.1551 15.5953 43.1551 16.1577 42.8069 16.5059L15.5424 43.7704C15.3638 43.949 15.1406 44.0293 14.9085 44.0293H14.9174Z" fill="#BFD1E2"/>
<path d="M28.5501 46.5915C28.318 46.5915 28.0948 46.5022 27.9163 46.3326L11.7218 30.1381C11.5522 29.9685 11.4629 29.7453 11.4629 29.5043C11.4629 29.2632 11.5611 29.04 11.7218 28.8704L27.9163 12.6759C28.2555 12.3367 28.8447 12.3367 29.175 12.6759L45.3695 28.8704C45.5391 29.04 45.6284 29.2632 45.6284 29.5043C45.6284 29.7453 45.5302 29.9685 45.3695 30.1381L29.175 46.3326C28.9965 46.5112 28.7733 46.5915 28.5412 46.5915H28.5501ZM13.6144 29.5043L28.5501 44.431L43.4769 29.5043L28.5501 14.5686L13.6144 29.5043Z" fill="#BFD1E2"/>
</svg>
