<svg width="128" height="32" viewBox="0 0 128 32" fill="none" xmlns="http://www.w3.org/2000/svg">
<path d="M19.2528 15.0696C19.2784 12.8981 20.4175 10.9054 22.2734 9.76855C21.0959 8.0952 19.2017 7.07331 17.1666 7.00944C15.0164 6.77951 12.9302 8.2868 11.8423 8.2868C10.7544 8.2868 9.03935 7.02221 7.22191 7.06053C4.82852 7.13718 2.66552 8.46564 1.50082 10.5477C-0.969363 14.8269 0.873675 21.1115 3.24147 24.5732C4.43176 26.2721 5.81404 28.1626 7.63148 28.086C9.41052 28.0093 10.0761 26.9619 12.2135 26.9619C14.3509 26.9619 14.9524 28.086 16.8083 28.0476C18.7153 28.0221 19.9184 26.3487 21.0575 24.6371C21.915 23.4363 22.5678 22.0951 23.0029 20.69C20.7375 19.732 19.2656 17.5221 19.2656 15.0696H19.2528Z" fill="white"/>
<path d="M15.7588 4.73573C16.7955 3.49669 17.3074 1.88721 17.1794 0.277729C15.5924 0.443786 14.1205 1.19743 13.071 2.39815C12.0343 3.57333 11.5095 5.11894 11.6119 6.6901C13.2246 6.70287 14.7476 5.98755 15.7588 4.73573Z" fill="white"/>
<path d="M41.6893 23.8068H35.6354L34.1763 28.0987H31.6166L37.3504 12.2339H40.0126L45.7465 28.0987H43.1355L41.6765 23.8068H41.6893ZM36.2625 21.8269H41.0621L38.6943 14.8652H38.6303L36.2625 21.8269Z" fill="white"/>
<path d="M58.1486 22.3123C58.1486 25.9017 56.216 28.2137 53.3106 28.2137C51.8132 28.2903 50.3925 27.5111 49.663 26.1955H49.6118V31.918H47.2312V16.5258H49.535V18.4546H49.5734C50.3285 17.1517 51.7492 16.3597 53.2594 16.4108C56.2032 16.4108 58.1358 18.7356 58.1358 22.3123H58.1486ZM55.704 22.3123C55.704 19.9747 54.4881 18.4291 52.6451 18.4291C50.8021 18.4291 49.599 20.0002 49.599 22.3123C49.599 24.6243 50.8277 26.2082 52.6451 26.2082C54.4625 26.2082 55.704 24.6754 55.704 22.3123Z" fill="white"/>
<path d="M70.8963 22.3123C70.8963 25.9017 68.9637 28.2137 66.0583 28.2137C64.5608 28.2903 63.1402 27.5111 62.4106 26.1955H62.3594V31.918H59.9788V16.5258H62.2826V18.4546H62.321C63.0762 17.1517 64.4968 16.3597 66.0071 16.4108C68.9509 16.4108 70.8835 18.7356 70.8835 22.3123H70.8963ZM68.4517 22.3123C68.4517 19.9747 67.2358 18.4291 65.3928 18.4291C63.5497 18.4291 62.3466 20.0002 62.3466 22.3123C62.3466 24.6243 63.5753 26.2082 65.3928 26.2082C67.2102 26.2082 68.4517 24.6754 68.4517 22.3123Z" fill="white"/>
<path d="M79.3307 23.679C79.5099 25.2502 81.033 26.2849 83.132 26.2849C85.231 26.2849 86.5749 25.2502 86.5749 23.8323C86.5749 22.6061 85.7046 21.8652 83.644 21.3542L81.5833 20.8561C78.6652 20.1535 77.3085 18.7867 77.3085 16.5769C77.3085 13.8433 79.7019 11.9656 83.0936 11.9656C86.4853 11.9656 88.7507 13.8433 88.8275 16.5769H86.4213C86.2805 14.993 84.9622 14.0349 83.0552 14.0349C81.1482 14.0349 79.8299 15.0057 79.8299 16.4108C79.8299 17.5349 80.6618 18.1864 82.7096 18.6973L84.4631 19.1316C87.7268 19.898 89.0835 21.2137 89.0835 23.5258C89.0835 26.4892 86.7157 28.3542 82.9528 28.3542C79.4331 28.3542 77.0525 26.5403 76.8989 23.6663H79.3307V23.679Z" fill="white"/>
<path d="M94.2286 13.7922V16.5258H96.43V18.4035H94.2286V24.7776C94.2286 25.7739 94.6638 26.2338 95.6365 26.2338C95.8925 26.2338 96.1612 26.2082 96.4172 26.1827V28.0476C95.9821 28.1243 95.5341 28.1626 95.0989 28.1626C92.7567 28.1626 91.8352 27.2812 91.8352 25.0458V18.4163H90.1458V16.5386H91.8352V13.805H94.2286V13.7922Z" fill="white"/>
<path d="M97.7099 22.3123C97.7099 18.6718 99.8601 16.3853 103.201 16.3853C106.541 16.3853 108.691 18.6718 108.691 22.3123C108.691 25.9528 106.567 28.2392 103.201 28.2392C99.8345 28.2392 97.7099 25.9655 97.7099 22.3123ZM106.285 22.3123C106.285 19.8214 105.133 18.3397 103.213 18.3397C101.294 18.3397 100.142 19.8214 100.142 22.3123C100.142 24.8031 101.281 26.2849 103.213 26.2849C105.146 26.2849 106.285 24.8287 106.285 22.3123Z" fill="white"/>
<path d="M110.662 16.5258H112.928V18.4929H112.979C113.299 17.2284 114.464 16.3597 115.769 16.3981C116.038 16.3981 116.319 16.4236 116.588 16.4875V18.7101C116.243 18.6079 115.884 18.5568 115.526 18.5696C114.208 18.5185 113.081 19.5404 113.03 20.8688C113.03 20.9966 113.03 21.1115 113.043 21.2393V28.0987H110.662V16.5258Z" fill="white"/>
<path d="M127.544 24.7009C127.224 26.7958 125.176 28.2392 122.553 28.2392C119.186 28.2392 117.087 25.9911 117.087 22.3634C117.087 18.7356 119.186 16.3853 122.45 16.3853C125.714 16.3853 127.672 18.5824 127.672 22.0951V22.9126H119.494V23.0531C119.353 24.7137 120.569 26.1699 122.233 26.3232C122.361 26.3232 122.489 26.336 122.604 26.3232C123.756 26.4254 124.844 25.7739 125.279 24.7009H127.544ZM119.506 21.2521H125.304C125.394 19.7192 124.216 18.4035 122.681 18.3269C122.604 18.3269 122.54 18.3269 122.463 18.3269C120.837 18.3269 119.519 19.617 119.506 21.2393C119.506 21.2393 119.506 21.2521 119.506 21.2648V21.2521Z" fill="white"/>
<path d="M34.5731 3.50946H35.597C36.3009 3.59888 36.9409 3.1007 37.0305 2.39815C37.0305 2.35983 37.0305 2.33429 37.0305 2.29596C37.0305 1.59341 36.5057 1.13356 35.597 1.13356C34.8547 1.03137 34.1635 1.54232 34.0611 2.29596C34.0611 2.29596 34.0611 2.32151 34.0611 2.33429H32.9348C33.0116 1.0186 34.1507 0.00948181 35.469 0.0861237C35.5202 0.0861237 35.5842 0.086124 35.6354 0.0988976C37.1329 0.0988976 38.1952 0.941959 38.1952 2.14268C38.1952 2.97297 37.6192 3.70107 36.8129 3.8799V3.96931C37.7856 4.00763 38.5535 4.83792 38.5151 5.80872C38.3744 7.21382 37.1201 8.22294 35.7122 8.08243C35.6994 8.08243 35.6738 8.08243 35.661 8.08243C34.2659 8.27403 32.986 7.30323 32.8069 5.91091C32.8069 5.88536 32.8069 5.84704 32.8069 5.82149H33.946C34.0099 6.54959 34.6883 7.02221 35.6738 7.02221C36.6593 7.02221 37.3121 6.49849 37.3121 5.74485C37.3121 4.9912 36.6977 4.51858 35.6354 4.51858H34.5859V3.48391L34.5731 3.50946Z" fill="white"/>
<path d="M39.8078 6.28134C39.8078 5.24668 40.5758 4.64632 41.9452 4.56967L43.5067 4.48026V3.98208C43.5067 3.36895 43.1099 3.03684 42.3292 3.03684C41.6893 3.03684 41.2541 3.26676 41.1261 3.67552H40.0254C40.1406 2.69195 41.0749 2.05326 42.3804 2.05326C43.8267 2.05326 44.6458 2.76859 44.6458 3.98208V7.91637H43.5451V7.11163H43.4555C43.0843 7.69922 42.4188 8.0441 41.7277 8.01856C40.7677 8.12075 39.9102 7.4182 39.8206 6.47295C39.8206 6.42185 39.8206 6.35798 39.8206 6.29412L39.8078 6.28134ZM43.5067 5.79594V5.31054L42.0988 5.39996C41.3053 5.45105 40.9469 5.7193 40.9469 6.23025C40.9469 6.74119 41.3949 7.04776 42.0092 7.04776C42.7516 7.1244 43.4171 6.57513 43.4939 5.83426C43.4939 5.82149 43.4939 5.80872 43.4939 5.78317L43.5067 5.79594Z" fill="white"/>
<path d="M47.6663 3.11348V7.90359H46.5272V2.15545H50.3157V3.11348H47.6535H47.6663Z" fill="white"/>
<path d="M57.2143 5.02952C57.2143 6.85616 56.2928 8.00578 54.8337 8.00578C54.1042 8.05688 53.413 7.67367 53.0547 7.03499H52.9651V9.81964H51.826V2.15545H52.9267V3.1007H53.0163C53.3746 2.43647 54.0786 2.04049 54.8209 2.05326C56.2928 2.05326 57.2143 3.19012 57.2143 5.01675V5.02952ZM56.0496 5.02952C56.0496 3.81603 55.4736 3.07516 54.5137 3.07516C53.5538 3.07516 52.9523 3.8288 52.9523 5.02952C52.9523 6.23025 53.5538 6.98389 54.5009 6.98389C55.4736 6.98389 56.0496 6.25579 56.0496 5.02952Z" fill="white"/>
<path d="M58.7246 9.97292V8.98935C58.8526 9.00213 58.9677 9.0149 59.0957 9.0149C59.5949 9.05322 60.0428 8.70833 60.1324 8.21016L60.222 7.92914L58.1358 2.15545H59.3773L60.8236 6.72842H60.9132L62.3466 2.15545H63.5497L61.3995 8.14629C60.9132 9.5514 60.3628 9.99847 59.1853 9.99847C59.0957 9.99847 58.8141 9.99847 58.7118 9.97292H58.7246Z" fill="white"/>
<path d="M64.4457 6.28134H65.572C65.6871 6.79229 66.1607 7.04776 66.8262 7.04776C67.5814 7.04776 68.0549 6.71565 68.0549 6.19193C68.0549 5.64266 67.6326 5.37441 66.8262 5.37441H65.9687V4.49303H66.8134C67.5046 4.49303 67.8502 4.22478 67.8502 3.75216C67.8502 3.33063 67.5174 3.01129 66.8134 3.01129C66.1735 3.01129 65.7127 3.27954 65.6359 3.73939H64.5352C64.7016 2.65363 65.7127 1.89998 66.8006 2.05326C68.1701 2.05326 68.9509 2.6664 68.9509 3.6372C68.9637 4.19924 68.5797 4.68464 68.0421 4.81237V4.90179C68.6949 4.9912 69.1812 5.54047 69.1684 6.19193C69.1684 7.29046 68.2341 8.00578 66.8134 8.00578C65.5592 8.00578 64.5352 7.43097 64.4329 6.26857L64.4457 6.28134Z" fill="white"/>
<path d="M70.8323 7.91637V2.16823H71.9586V6.12806H72.0482L74.7103 2.16823H75.8367V7.91637H74.7103V3.94376H74.6208L71.9586 7.91637H70.8323Z" fill="white"/>
<path d="M82.0441 3.11348H80.2267V7.90359H79.0876V3.11348H77.2701V2.15545H82.0441V3.11348Z" fill="white"/>
<path d="M88.162 6.35798C87.842 7.44374 86.7925 8.14629 85.6662 8.01856C84.2199 8.05688 83.0168 6.92002 82.9784 5.4766C82.9784 5.33609 82.9784 5.19558 83.004 5.05507C82.812 3.59888 83.8359 2.27042 85.2822 2.07881C85.4102 2.06604 85.5382 2.05326 85.6534 2.05326C87.2532 2.05326 88.226 3.1518 88.226 4.95288V5.34886H84.1559V5.41273C84.0791 6.24302 84.7063 6.98389 85.5382 7.06053C85.5894 7.06053 85.6406 7.06053 85.6918 7.06053C86.2421 7.1244 86.7925 6.85615 87.0613 6.35798H88.162ZM84.1559 4.5058H87.0613C87.1124 3.73939 86.5493 3.07516 85.7814 3.02406C85.743 3.02406 85.6918 3.02406 85.6534 3.02406C84.8343 3.02406 84.1687 3.66274 84.1559 4.46748C84.1559 4.48026 84.1559 4.49303 84.1559 4.5058Z" fill="white"/>
<path d="M92.9871 2.15545H95.5853C96.7116 2.15545 97.3771 2.73027 97.3771 3.62442C97.3771 4.21201 96.9804 4.71018 96.4044 4.83792V4.92733C97.1084 4.96566 97.6459 5.55324 97.6331 6.25579C97.6331 7.26491 96.878 7.91637 95.6109 7.91637H92.9871V2.15545ZM94.1134 3.02406V4.51858H95.2397C95.9309 4.51858 96.2508 4.25033 96.2508 3.76493C96.2508 3.31786 95.9693 3.02406 95.3549 3.02406H94.1006H94.1134ZM94.1134 5.34886V7.03499H95.4573C96.1357 7.03499 96.494 6.74119 96.494 6.19193C96.494 5.61711 96.0845 5.34886 95.3165 5.34886H94.1134Z" fill="white"/>
</svg>
