<svg width="1920" height="376" viewBox="0 0 1920 376" fill="none" xmlns="http://www.w3.org/2000/svg">
<path d="M1920 66C1899.73 81.0455 1878.62 94.9399 1856.79 107.623C1722.86 185.475 1569.71 230.087 1414.86 235.196C1223.12 241.538 1035.1 189.131 846.87 152.072C730.885 129.232 613.791 112.146 496.132 100.837C332.369 85.1048 166.146 80.1771 2 85.3067V309.495C37.1727 289.623 91.5653 264.722 137.104 254.826C218.381 237.196 301.573 230.592 384.523 227.603C451.4 225.2 518.478 225.099 585.152 230.915C667.175 238.064 748.068 254.099 828.437 271.528C886.44 284.109 943.918 298.953 1001.52 313.332C1081.34 333.245 1161.57 352.228 1243.17 363.336C1312.87 372.827 1412.82 376.624 1511.02 375.917C1584.75 375.392 1711.85 355.641 1718.91 353.945C1794.74 335.809 1844.94 315.251 1920 294.571V66Z" fill="url(#paint0_linear_70_2855)"/>
<path d="M1921.5 6V3.0203L1919.11 4.79512C1898.86 19.8069 1877.77 33.6705 1855.97 46.3253C1722.11 124.056 1569.04 168.596 1414.28 173.697C1261.97 178.729 1112.04 146.726 962.273 114.76C923.53 106.49 884.799 98.2235 846.041 90.6006C729.886 67.7502 612.621 50.6579 494.79 39.3438L494.647 40.8369L494.79 39.3438C330.791 23.6053 164.331 18.6759 -0.0468038 23.8075L-1.5 23.8528V25.3067V249.495V252.064L0.737277 250.801C35.881 230.966 90.1825 206.143 135.563 196.292C216.798 178.689 299.976 172.09 382.976 169.102C449.891 166.7 516.971 166.6 583.63 172.409C665.638 179.55 746.538 195.567 826.981 212.994C875.07 223.414 922.797 235.386 970.558 247.367C980.435 249.845 990.313 252.323 1000.2 254.787L1000.56 253.332L1000.2 254.788C1080.11 274.701 1160.49 293.703 1242.26 304.822C1312.14 314.328 1412.27 318.124 1510.6 317.417C1547.6 317.154 1597.93 312.075 1639.86 306.859C1681.75 301.647 1715.42 296.275 1719.05 295.403C1757.06 286.323 1788.64 276.636 1820.09 266.642C1824.85 265.13 1829.6 263.611 1834.38 262.086C1861.16 253.529 1888.54 244.785 1920.4 236.017L1921.5 235.714V234.571V6Z" stroke="url(#paint1_linear_70_2855)" stroke-width="3"/>
<defs>
<linearGradient id="paint0_linear_70_2855" x1="2" y1="221" x2="1920" y2="221" gradientUnits="userSpaceOnUse">
<stop stop-color="#C7DDEF"/>
<stop offset="1" stop-color="#98BFE6"/>
</linearGradient>
<linearGradient id="paint1_linear_70_2855" x1="0" y1="161" x2="1920" y2="161" gradientUnits="userSpaceOnUse">
<stop stop-color="#F9E2C1"/>
<stop offset="0.465" stop-color="#FFD792"/>
<stop offset="1" stop-color="#ECB14C"/>
</linearGradient>
</defs>
</svg>
