<svg width="1006" height="765" viewBox="0 0 1006 765" fill="none" xmlns="http://www.w3.org/2000/svg">
<path d="M511.901 761.355C507.714 765.236 177.267 763.042 6.92526 761.411C3.63442 761.38 1.09375 758.704 1.09375 755.413V277.45C1.09375 273.834 4.23659 271.042 7.84078 271.332C60.5496 275.563 159.815 256.418 187.858 147.722C188.554 145.023 190.979 143.047 193.767 143.047H254.462C256.549 143.047 258.454 142 259.577 140.241C287.133 97.0477 371.403 1.82031 503.961 1.82031M493.374 761.355C497.56 765.236 828.008 763.042 998.349 761.411C1001.64 761.38 1004.18 758.704 1004.18 755.413V277.45C1004.18 273.834 1001.04 271.042 997.434 271.332C944.725 275.563 845.459 256.418 817.417 147.722C816.72 145.023 814.296 143.047 811.508 143.047H750.813C748.726 143.047 746.82 142 745.698 140.241C718.141 97.0477 633.872 1.82031 501.314 1.82031" stroke="#FBE28A" stroke-width="2"/>
</svg>
