<svg width="44" height="56" viewBox="0 0 44 56" fill="none" xmlns="http://www.w3.org/2000/svg">
<path d="M43.3736 30.0698C43.3736 38.2088 43.3736 46.3488 43.3736 54.4878C43.3736 54.6687 43.3714 54.8484 43.3627 55.0293C43.3368 55.5848 43.0964 55.8338 42.5517 55.8425C41.5231 55.8587 40.4945 55.8652 39.4658 55.8707C36.3691 55.8707 33.2724 55.9031 30.1757 55.9194C27.1212 55.9194 24.0667 55.9519 21.0122 55.966C17.9577 55.9768 14.9021 56.0223 11.8498 55.9865C11.7729 55.9865 11.6971 55.9844 11.6202 55.9833C10.8915 55.9735 10.1628 55.9562 9.43411 55.9281C8.51809 55.8923 7.56525 55.9302 6.65572 55.823C6.28758 55.7797 6.04612 55.5425 5.98549 55.1798C5.83715 54.2896 5.81766 53.3508 5.83282 52.4487C5.85339 51.1969 5.8339 49.9527 5.77326 48.7052C5.74295 48.0793 5.63792 47.4317 5.65199 46.8069C5.67906 45.5951 5.62384 44.3715 5.62276 43.1554C5.62276 43.0785 5.62276 43.0005 5.62276 42.9237C5.62492 39.819 5.69422 36.7144 5.69422 33.6087C5.69422 33.0185 5.69206 32.4294 5.68556 31.8392C5.61626 25.0723 5.69097 18.3042 5.70397 11.5362C5.70613 10.2768 5.75053 9.01847 5.81008 7.76124C5.8404 7.1245 5.87504 6.48776 5.90969 5.85211C5.93568 5.38213 5.79059 4.55481 6.36229 4.3718C6.5691 4.30574 6.79215 4.3274 7.00762 4.34581C8.52458 4.47251 10.0307 4.33282 11.5498 4.26459C13.069 4.19637 14.6487 4.14439 16.1993 4.11082C19.2397 4.04477 22.2899 4.05343 25.3238 4.05776C28.3956 4.06209 31.4555 4.33173 34.5262 4.31224C35.6437 4.30466 36.7568 4.26243 37.8742 4.27001C38.9916 4.27759 40.1469 4.32415 41.2827 4.32415C41.5469 4.33065 41.8111 4.33715 42.0753 4.34473C42.3926 4.35339 42.8473 4.27217 43.1094 4.49633C43.1949 4.56888 43.2501 4.67068 43.2859 4.7768C43.4006 5.11249 43.3346 5.47201 43.3411 5.81854C43.3476 6.16506 43.3497 6.52458 43.3497 6.8776C43.3497 7.65511 43.3497 8.43263 43.3497 9.21122C43.3497 10.7662 43.3497 12.3224 43.3497 13.8774C43.3497 16.9885 43.3497 20.0997 43.3497 23.2108C43.3497 23.7826 43.3497 30.0709 43.3497 30.0709H43.3714L43.3736 30.0698ZM7.44723 30.2311C7.4364 30.2311 7.42557 30.2311 7.41474 30.2311C7.41474 32.5767 7.41258 34.9222 7.41474 37.2688C7.41908 41.347 7.42232 45.4251 7.43857 49.5033C7.44181 50.3436 7.73308 51.0594 8.40765 51.6247C8.86241 52.0069 9.20348 52.5256 9.66474 52.8992C10.1964 53.3302 10.7583 53.8121 11.3885 54.0113C12.2028 54.2691 13.096 54.3135 13.9601 54.3698C14.8588 54.4272 15.764 54.3914 16.6659 54.3925C19.7508 54.3969 22.8377 54.4553 25.9215 54.3849C28.9868 54.3156 32.064 54.6708 35.1185 54.138C35.6447 54.046 36.2024 54.0579 36.7383 54.1023C37.9824 54.2063 38.7306 53.3963 39.5297 52.6664C39.8242 52.3978 40.148 52.1488 40.3916 51.838C40.7771 51.3464 41.2188 50.8515 41.4278 50.2819C41.6357 49.7144 41.6411 49.0517 41.6433 48.4312C41.6617 43.3611 41.5989 38.2889 41.6812 33.2199C41.7635 28.1661 41.4289 23.1112 41.8685 18.0541C42.0418 16.054 41.744 14.0138 41.666 11.991C41.6444 11.4322 41.6368 10.8724 41.6357 10.3136C41.6357 9.63896 41.3206 9.1116 40.8724 8.64812C40.2032 7.95616 39.4388 7.33458 38.879 6.56356C38.251 5.69617 37.3469 5.54348 36.4871 5.53699C29.1622 5.48392 21.8362 5.50666 14.5112 5.48176C13.3018 5.47743 12.1129 5.52399 11.0399 6.12932C10.5028 6.43253 9.99607 6.81479 9.54131 7.2317C9.08979 7.64537 8.69674 8.12942 8.32102 8.61672C8.05466 8.96216 7.76448 9.33792 7.65729 9.74508C7.50461 10.3266 7.45589 10.9503 7.45481 11.5557C7.44181 17.7812 7.44615 24.0067 7.44615 30.2322L7.44723 30.2311Z" fill="white"/>
<path d="M1.00041 1.24226C1.39454 1.13505 1.68905 1.26391 1.94783 1.5877C2.23802 1.95046 2.57151 2.2775 2.88984 2.61644C3.59689 3.36905 4.0679 4.19096 4.0679 5.29009C4.05924 20.7548 4.07331 36.2206 4.08306 51.6853C4.08306 52.6772 4.10363 53.6702 4.09064 54.6622C4.08847 54.7899 4.03 55.0672 3.93905 55.1614C3.82536 55.2794 3.72899 55.1787 3.5774 55.0877C3.29913 54.9221 3.04901 54.7152 2.80864 54.4986C2.53036 54.2496 2.26725 53.9832 1.98573 53.7385C1.73886 53.524 1.46059 53.354 1.23645 53.1136C1.01232 52.8732 0.92245 52.5505 0.846656 52.2354C0.645261 51.3962 0.68424 50.5017 0.665833 49.6462C0.646343 48.7334 0.632267 47.8183 0.642012 46.9044C0.649592 46.1333 0.638764 45.3623 0.637681 44.5913C0.635516 43.0406 0.637681 41.4888 0.637681 39.9381C0.637681 39.4259 0.637681 38.9148 0.637681 38.4026C0.637681 33.8263 0.663668 29.2522 0.701565 24.6749C0.721055 22.312 0.758952 19.9491 0.725386 17.5852C0.700482 15.7248 0.63335 13.8546 0.638764 12.0007C0.644178 10.1035 0.643095 8.20522 0.643095 6.308C0.646343 5.5868 0.650674 4.86451 0.657171 4.14331C0.66475 3.19037 0.876974 2.23959 1.00149 1.24226H1.00041Z" fill="white"/>
<path d="M23.4224 2.44209C17.4336 2.44209 11.4448 2.44426 5.45601 2.43885C4.98392 2.43885 4.47827 2.53197 4.09172 2.13131C3.83943 1.87033 3.58065 1.61369 3.34677 1.33647C3.16487 1.12097 2.95806 0.896815 2.87144 0.64017C2.78265 0.374863 2.92233 0.150705 3.26557 0.15612C3.42798 0.159369 3.58931 0.137711 3.75173 0.136628C10.3328 0.087898 16.9128 0.0348365 23.4939 0.000184105C24.6362 -0.00523033 25.7785 0.110639 26.9209 0.103058C29.6592 0.0868151 32.3964 0.00343277 35.1348 0.000184105C36.8076 -0.00198167 38.4849 0.0510798 40.1523 0.177778C40.6309 0.214596 41.1041 0.56112 41.5383 0.830758C41.822 1.00619 42.0645 1.27691 42.2626 1.5498C42.3991 1.73822 42.4251 2.00569 42.5009 2.23851C42.293 2.3024 42.0851 2.42044 41.8772 2.42044C38.0528 2.42693 34.2285 2.41935 30.4041 2.4161C28.0773 2.41394 25.7504 2.4161 23.4235 2.4161C23.4235 2.42369 23.4235 2.43235 23.4235 2.43993L23.4224 2.44209Z" fill="white"/>
<path d="M40.7738 30.1521C40.7738 36.2163 40.7706 42.2793 40.7782 48.3435C40.7793 49.265 40.3072 49.9419 39.743 50.5948C39.3976 50.9955 39.0999 51.4384 38.7447 51.8304C38.5617 52.0318 38.2986 52.1585 38.0745 52.3231C37.7572 52.5559 37.4346 52.7823 37.1292 53.0302C36.7026 53.3779 36.2002 53.3454 35.7021 53.3465C30.8123 53.354 25.9215 53.3551 21.0317 53.3746C20.4242 53.3768 19.8179 53.5197 19.2105 53.5175C18.4763 53.5154 17.7433 53.3844 17.0092 53.3876C16.0953 53.3919 15.1815 53.5132 14.2676 53.5143C13.5703 53.5143 12.873 53.4103 12.1779 53.3367C12.0674 53.3248 11.944 53.2544 11.8628 53.1743C10.9587 52.2841 9.96142 51.4622 9.19807 50.4627C8.70757 49.8217 8.13587 49.1503 8.1467 48.1724C8.18676 44.5274 8.1337 40.8824 8.13804 37.2374C8.1467 29.1114 8.16077 20.9865 8.19867 12.8616C8.20192 12.0895 8.38058 11.3164 8.51159 10.5486C8.53974 10.3829 8.69458 10.227 8.81693 10.0905C9.54239 9.28269 10.2332 8.43696 11.0182 7.69085C11.7794 6.96748 12.6922 6.67727 13.8063 6.59172C20.5899 6.0676 27.3789 6.50184 34.1624 6.38922C35.007 6.37514 35.8916 6.45636 36.6885 6.70975C37.218 6.8776 37.6457 7.40821 38.0831 7.81646C38.7285 8.41855 39.3922 9.01414 39.9542 9.68986C40.4717 10.3114 40.7738 11.0575 40.7728 11.9098C40.7684 14.5087 40.7912 17.1076 40.7955 19.7055C40.7998 23.188 40.7966 26.6717 40.7966 30.1543C40.789 30.1543 40.7814 30.1543 40.7728 30.1543L40.7738 30.1521ZM10.2873 20.4538C10.1693 21.1024 10.4389 21.5865 10.7399 22.0716C11.1471 22.7267 11.5434 23.3873 11.9202 24.0598C12.1096 24.3976 12.337 24.7539 12.3868 25.1242C12.4984 25.944 11.814 26.3923 11.3842 26.95C11.0951 27.3258 10.6187 27.6409 10.5126 28.0567C10.2559 29.067 10.6057 29.9734 11.2467 30.8094C11.5585 31.2166 11.6787 31.7688 11.8855 32.2561C11.9256 32.3514 11.9743 32.4446 12.0024 32.5442C12.1335 32.9958 12.3803 33.456 12.3522 33.8989C12.324 34.3559 12.0696 34.8193 11.8389 35.2384C11.4416 35.9618 10.9673 36.6418 10.5634 37.3609C10.3469 37.7464 10.1444 38.1958 10.4541 38.6127C10.6912 38.9321 11.0594 38.8087 11.4232 38.8098C12.4356 38.813 13.4241 38.5466 14.4473 38.6452C15.1425 38.7112 15.5507 39.1401 16.0087 39.5331C16.7461 40.1666 17.3838 40.955 18.2035 41.4423C19.3382 42.1169 20.5899 42.6042 21.8156 43.1121C22.6201 43.4445 23.0792 44.0834 23.4149 44.796C23.8458 45.7121 24.1371 46.6932 24.5312 47.6288C24.5972 47.7847 24.8777 47.9331 25.0617 47.9363C25.3281 47.9418 25.7179 47.8952 25.837 47.7208C26.0546 47.4046 26.1239 46.9823 26.2355 46.5979C26.4369 45.907 26.5235 45.1609 26.8472 44.535C27.119 44.0087 27.6073 43.5507 28.0935 43.189C28.5959 42.8154 29.2174 42.6064 29.775 42.3043C30.7506 41.7769 31.737 41.2668 32.6812 40.6864C33.3016 40.3052 33.8354 39.7833 34.445 39.3805C34.9745 39.0307 35.5376 38.7123 36.1233 38.473C36.3919 38.3625 36.7546 38.4481 37.0686 38.4903C37.3393 38.5261 37.5981 38.6408 37.8666 38.695C38.2152 38.7654 38.5682 38.8195 38.9212 38.8639C39.1464 38.8921 39.3749 38.8899 39.6283 38.9029C39.6499 38.7296 39.664 38.6073 39.6792 38.4849C39.8362 37.2363 38.8075 36.4426 38.4665 35.3759C38.2152 34.593 37.7204 34.005 37.964 33.0044C38.2954 31.6486 38.2488 30.1911 38.278 28.7747C38.2986 27.7817 38.1611 26.7962 37.7973 25.8444C37.6327 25.4134 37.8384 24.9748 37.9998 24.5211C38.3138 23.6407 38.7989 22.8946 39.35 22.1647C39.5969 21.8388 39.8199 21.4782 39.9683 21.1002C40.1274 20.6942 39.9087 20.4321 39.4095 20.4213C38.1113 20.3931 36.8131 20.405 35.5148 20.3801C34.6129 20.3628 34.3454 20.0802 34.3389 19.2106C34.3368 18.9215 34.3238 18.6323 34.3433 18.3443C34.4212 17.1542 34.1375 16.0919 33.1219 15.3848C32.7256 15.1086 32.1506 14.7957 31.7435 14.8866C30.8048 15.0945 29.9256 15.5429 29.2737 16.328C29.0193 16.6344 28.6251 16.5965 28.3923 16.2781C28.1682 15.9717 27.9322 15.6674 27.7568 15.3339C27.2619 14.3918 26.7877 13.4377 26.3188 12.4826C26.0081 11.8491 25.9561 11.064 25.1711 10.6742C24.9784 10.8615 24.6806 11.0489 24.529 11.3174C24.1901 11.9184 23.914 12.5552 23.6314 13.1865C23.404 13.6933 23.2622 14.2477 22.9796 14.7188C22.4501 15.6046 21.6575 16.2067 20.6765 16.5489C20.408 16.642 20.1146 16.6896 19.8742 16.8282C19.27 17.1759 18.7005 17.583 18.0963 17.9306C17.2961 18.3919 16.6486 19.0428 15.9242 19.5961C15.1847 20.1603 14.5643 20.9183 13.3256 20.5111C12.4182 20.2134 11.3344 20.4527 10.2852 20.4527L10.2873 20.4538ZM34.876 42.4147C34.7818 42.3107 34.6865 42.2274 34.6172 42.1256C34.3736 41.7693 34.0022 41.635 33.6405 41.7801C33.2453 41.9382 33.1056 42.3357 33.1879 42.7612C33.2659 43.1684 33.4944 43.4402 33.9415 43.4922C34.3768 43.5431 34.6226 43.4164 34.6356 42.9312C34.6399 42.7731 34.7775 42.6172 34.8771 42.4147H34.876Z" fill="white"/>
<path d="M38.2748 21.4013C38.2023 21.5973 38.1676 21.8204 38.0496 21.9828C37.5277 22.704 36.8921 23.3581 36.4677 24.1302C35.9371 25.0928 34.9106 25.4599 34.2447 26.2407C33.5388 27.0691 32.8317 27.8997 32.0792 28.6848C31.632 29.1515 31.5508 29.6453 31.8496 30.1586C32.0889 30.5701 32.4376 30.9231 32.7657 31.2761C33.3395 31.8923 33.9307 32.4944 34.5241 33.0921C35.0308 33.6033 35.5635 34.0884 36.0616 34.6071C36.4644 35.0262 36.8347 35.4767 37.2126 35.9196C37.4692 36.2206 37.7118 36.5325 37.977 36.8595C37.7637 37.18 37.5937 37.5038 37.0913 37.0793C36.891 36.9104 36.4655 36.9764 36.1439 36.9862C35.3188 37.01 34.549 36.8736 33.7791 36.5325C33.0937 36.2293 32.3315 36.1047 31.6103 35.8751C31.0982 35.7116 30.6131 35.4171 30.0923 35.3402C29.4437 35.2449 28.7713 35.3066 28.1087 35.3218C28.0394 35.3229 27.9397 35.4582 27.9116 35.5481C27.708 36.1838 27.5186 36.8238 27.3247 37.4616C27.0757 38.2824 26.8483 39.1108 26.57 39.9219C26.3968 40.4265 26.713 40.7644 26.9544 41.0784C27.0378 41.1856 27.4947 41.0633 27.7503 40.9669C28.4227 40.7135 29.094 40.4482 29.7361 40.1287C30.2439 39.8753 30.7073 39.5331 31.1924 39.2332C31.9157 38.786 32.6325 38.3268 33.372 37.9077C33.5355 37.8157 33.7824 37.872 33.9979 37.859C34.1115 38.46 33.5853 38.5141 33.3255 38.7058C32.6195 39.2256 31.8594 39.6761 31.1047 40.1255C30.6716 40.3843 30.2125 40.602 29.7545 40.8153C28.7886 41.2636 27.786 41.6437 26.8613 42.1635C26.4726 42.3822 26.2062 42.8598 25.9518 43.2626C25.7601 43.5658 25.6952 43.947 25.536 44.2751C25.3617 44.6335 25.0282 44.6498 24.8409 44.2946C24.555 43.751 24.3265 43.1781 24.0613 42.6226C23.9324 42.3519 23.7743 42.0942 23.6271 41.8245C23.1853 42.105 22.8767 42.1212 22.4847 41.831C22.0971 41.5441 21.5796 41.4401 21.1508 41.1986C20.4784 40.8196 19.8287 40.3995 19.1801 39.9815C18.6972 39.6707 18.2132 39.3566 17.7617 39.0025C17.0449 38.4394 16.366 37.8287 15.6481 37.2667C15.4565 37.1161 15.1869 37.0035 14.9465 36.9894C14.3715 36.9548 13.7923 37.0014 13.2151 36.9894C13.0538 36.9862 12.7669 36.905 12.7593 36.8357C12.7366 36.6234 12.755 36.3484 12.8762 36.1892C13.4479 35.4387 14.0445 34.7067 14.665 33.9953C14.9227 33.6996 15.2486 33.4571 15.5658 33.2199C16.0011 32.8961 16.4331 32.6113 16.6865 32.0742C16.8522 31.7223 17.2766 31.5014 17.5397 31.1841C17.8646 30.7942 18.1677 30.3806 18.433 29.9485C18.6799 29.5457 18.5597 29.1894 18.2262 28.8494C17.9555 28.5722 17.7964 28.1856 17.5246 27.9105C16.7677 27.1438 15.9546 26.4313 15.2096 25.6549C14.6736 25.0961 14.1994 24.4745 13.7165 23.867C13.383 23.4469 13.0798 23.0029 12.7528 22.5556C13.174 21.8918 13.7923 22.1387 14.3152 22.2189C15.2042 22.3542 15.9773 22.038 16.4299 21.2627C16.5122 21.1219 16.6638 21.0201 16.7926 20.9096C17.0189 20.7158 17.2788 20.5523 17.4758 20.3336C17.8721 19.8917 18.7849 19.3904 19.3989 19.4813C19.0632 19.7759 18.7329 20.0769 18.3897 20.3617C18.1071 20.5967 17.8093 20.8133 17.5159 21.0363C17.2939 21.2042 17.0254 21.3341 16.8565 21.5442C16.6605 21.789 16.4451 22.1008 16.4418 22.3856C16.4407 22.5546 16.8089 22.795 17.0547 22.8848C17.8743 23.1859 18.7102 23.4458 19.5472 23.697C20.068 23.8529 20.5975 23.9905 21.1313 24.089C21.5687 24.1702 21.912 23.945 22.0776 23.5541C22.3451 22.9271 22.5627 22.2773 22.7912 21.6341C22.9189 21.2757 23.0283 20.9107 23.1431 20.5469C23.2914 20.0791 23.4538 19.6145 23.5805 19.1402C23.7386 18.55 23.43 18.1656 22.8096 18.1331C22.671 18.1255 22.5324 18.0974 22.239 18.0584C22.6407 17.752 22.9276 17.5116 23.2351 17.3026C23.8945 16.8532 24.3081 16.316 24.2323 15.44C24.2031 15.0967 24.4262 14.7123 24.5972 14.3777C24.7272 14.1232 25.2372 14.1828 25.3725 14.4708C25.6898 15.1465 25.9669 15.8396 26.2755 16.5185C26.3686 16.7232 26.4737 16.9604 26.6448 17.0838C27.0995 17.4141 27.5933 17.6913 28.1119 18.014C28.008 18.1385 27.9213 18.2425 27.8358 18.3443C27.0974 18.0432 26.9793 18.0779 26.6209 18.7417C26.5646 18.8457 26.5127 18.9951 26.5451 19.0958C26.8949 20.1755 27.2587 21.2508 27.6279 22.3239C27.747 22.6715 27.8077 23.1945 28.0502 23.3082C28.4411 23.4913 28.9695 23.4728 29.4221 23.4122C30.193 23.3082 30.9477 23.0992 31.7132 22.9487C31.9417 22.9043 32.1799 22.9011 32.4138 22.8967C32.9302 22.8859 33.1966 22.6683 33.215 22.1149C33.2367 21.4392 33.503 21.3331 34.0823 21.7186C34.2999 21.8637 34.5154 22.012 34.7406 22.1441C35.203 22.417 36.2197 22.2882 36.6745 21.9871C37.1173 21.6926 37.6132 21.4782 38.0853 21.2291C38.1481 21.2854 38.2109 21.3417 38.2726 21.398L38.2748 21.4013ZM25.065 24.1107C24.8105 24.1107 24.4305 24.0836 24.0548 24.1161C23.3185 24.1789 22.6039 24.402 22.1036 24.9423C21.5471 25.5433 20.7068 25.9472 20.5877 26.8937C19.6869 27.6517 19.9229 28.8418 19.4974 29.7817C19.4584 29.8673 19.4822 30.0037 19.5212 30.0979C19.7767 30.7033 19.9998 31.3292 20.3225 31.8977C20.6603 32.4911 21.0815 33.0401 21.5005 33.5827C21.651 33.7776 21.8914 33.9097 22.1069 34.0462C22.4566 34.2703 22.815 34.4826 23.1788 34.6829C23.299 34.7489 23.4484 34.7663 23.5859 34.7998C24.1414 34.933 24.712 35.2113 25.2512 35.1604C25.9897 35.0911 26.7065 34.7771 27.4298 34.5551C27.5922 34.5053 27.7763 34.4392 27.8845 34.3201C28.5807 33.5534 29.4665 32.9893 29.9266 31.9638C30.285 31.1646 30.7106 30.4077 30.6543 29.5251C30.6207 28.9977 30.3966 28.4812 30.2482 27.9636C30.1681 27.682 30.062 27.4081 29.9743 27.1287C29.7664 26.4714 29.2077 26.0837 28.7821 25.5975C28.4876 25.2607 28.166 24.9239 27.7936 24.6857C27.0086 24.1821 26.1229 24.0002 25.0661 24.1107H25.065ZM16.1343 37.232C16.9778 37.441 17.5484 37.9868 18.1179 38.5748C18.4168 38.8834 18.6994 39.3079 19.2516 39.3057C19.4194 39.3057 19.5851 39.4952 19.7562 39.5916C20.2109 39.8504 20.6603 40.119 21.1259 40.3572C21.5936 40.5965 22.069 40.825 22.5584 41.0156C22.802 41.1098 23.1929 41.2333 23.3185 41.1207C23.4939 40.9636 23.5708 40.5868 23.535 40.3258C23.4517 39.7183 23.2773 39.1238 23.1355 38.525C22.9438 37.7204 22.789 36.9017 22.5324 36.1177C22.4263 35.795 22.1339 35.3554 21.8611 35.3023C21.2959 35.1919 20.6744 35.2362 20.0994 35.3424C19.4346 35.4637 18.799 35.7322 18.1439 35.9152C17.3611 36.134 16.5479 36.2899 16.1354 37.232H16.1343Z" fill="white"/>
<path d="M31.7608 19.0178C31.0376 19.0211 30.3511 18.484 30.3576 17.9209C30.3641 17.2896 31.1069 16.6983 31.8908 16.6994C32.5188 16.6994 32.992 17.2354 32.992 17.9458C32.992 18.7071 32.6411 19.0135 31.7608 19.0168V19.0178Z" fill="white"/>
<path d="M13.3018 29.9842C12.3089 29.9518 11.8368 29.5738 11.853 28.8266C11.8638 28.348 12.7106 27.6268 13.252 27.6355C13.9157 27.6463 14.4798 28.3924 14.4473 29.2186C14.4246 29.8121 14.1247 30.0124 13.3018 29.9853V29.9842Z" fill="white"/>
<path d="M36.3843 26.6457C37.2667 28.7649 37.4064 30.8722 36.4427 32.9427C35.8765 32.6536 35.844 32.4424 36.2403 31.8067C36.3518 31.627 36.3561 31.3606 36.3572 31.1343C36.3583 29.8023 36.3431 28.4704 36.3377 27.1384C36.3377 26.9749 36.368 26.8103 36.3854 26.6468L36.3843 26.6457Z" fill="white"/>
<path d="M27.4319 27.1081C27.642 27.1222 27.9181 27.055 28.0491 27.1633C28.4616 27.5055 28.9056 27.8401 28.9781 28.4541C29.0268 28.8656 29.3062 29.3064 29.2142 29.6637C29.0344 30.3611 28.7258 31.0455 28.3609 31.6714C27.9213 32.424 27.2825 32.9535 26.4618 33.3694C25.7114 33.7494 24.9546 33.783 24.3038 33.574C23.4094 33.2871 22.475 32.9037 22.0116 31.8912C21.7853 31.3963 21.4301 30.9816 21.297 30.4109C20.9721 29.0107 21.0934 28.0415 22.4793 27.146C22.527 27.3084 22.5854 27.447 22.606 27.5911C22.6656 27.995 22.7728 28.4043 22.7479 28.8039C22.6991 29.5825 23.2178 30.0005 23.7126 30.4001C24.4023 30.9567 25.2848 30.9762 26.0503 30.739C26.5397 30.5874 26.9858 30.0611 27.2836 29.5955C27.5738 29.1428 27.812 28.5884 27.6582 27.9885C27.5987 27.7557 27.5413 27.5218 27.4828 27.2879C27.4666 27.2272 27.4503 27.1666 27.433 27.107L27.4319 27.1081Z" fill="white"/>
</svg>
