<svg width="100" height="100" viewBox="0 0 100 100" fill="none" xmlns="http://www.w3.org/2000/svg">
<path d="M76.0702 79.6752C75.8813 79.552 75.6843 79.4535 75.479 79.3714L70.7251 83.7804L7.84923 43.081L9.58985 40.6097C9.58985 40.6097 9.64732 40.5358 9.67195 40.4947C10.7557 38.8198 10.2713 36.5701 8.59638 35.4863L7.25807 34.6242L8.21049 33.7375L6.17429 32.0215L0.623997 37.2023L2.59451 39.3288C3.94924 40.7985 3.86714 43.0892 2.39746 44.4522C2.36462 44.485 2.32357 44.5178 2.29073 44.5425L0 46.5048L48.6636 99.0437L50.7983 96.909C50.7983 96.909 50.864 96.8433 50.8968 96.8104C52.3665 95.4557 54.6572 95.5378 56.0201 97.0075L57.9907 99.134L77.7944 80.7918L76.0702 79.6752ZM4.61429 37.6785C4.61429 37.6785 4.54861 37.5964 4.51577 37.5554L4.31872 37.3419L4.45008 37.2187C4.50756 37.3665 4.56503 37.5225 4.61429 37.6785Z" fill="#FBE28A"/>
<path d="M98.6332 47.0461C96.2193 45.4861 95.5296 42.2676 97.0896 39.8619L97.8121 38.7453L37.8756 0L36.9971 1.36294C35.5274 3.63725 32.4977 4.28587 30.2234 2.8162L28.8605 1.92946L17.7763 19.073L12.0454 27.9403L10.7728 29.9108L10.2227 30.7647L12.6612 32.3411C14.3361 33.4249 14.8205 35.6746 13.7367 37.3495C13.7121 37.3906 13.6793 37.4316 13.6546 37.4645L11.914 39.9358L72.0558 78.8125L73.5912 76.2179C73.6158 76.1769 73.6405 76.1358 73.6651 76.0948C74.5026 74.8057 76.0215 74.231 77.4419 74.5184C77.6636 74.5594 77.8771 74.6251 78.0823 74.7154C78.2876 74.7975 78.4846 74.8961 78.6735 75.0192L81.2762 76.7024L82.9183 73.8041L85.1105 70.4213L99.758 47.7604L98.6414 47.0379L98.6332 47.0461ZM32.9 34.4758L29.2546 32.1194L29.4762 31.7828L30.1741 32.2344L38.2368 19.7626L37.2187 19.1058L34.887 22.7102L32.8179 21.3719L35.3714 17.4309L43.7953 22.8744L41.2419 26.8154L39.1728 25.4771L41.5046 21.8727L40.4865 21.2159L32.4238 33.6876L33.1217 34.1392L32.9 34.4758ZM39.8379 38.9588L36.1924 36.6024L36.4141 36.2657L37.112 36.7173L45.1747 24.2456L44.4768 23.794L44.6985 23.4574L48.2865 25.7727L48.3522 25.8138V25.8302L48.1305 26.1504L47.4326 25.6988L39.3699 38.1706L40.0678 38.6221L39.8461 38.9588H39.8379ZM51.2587 29.1062L44.0499 40.2642C43.9185 40.4695 43.9103 40.724 44.0334 41.0114C44.1566 41.2987 44.3783 41.5451 44.6903 41.7421C45.0023 41.9474 45.3143 42.0377 45.6263 42.0377C45.9383 42.0377 46.1682 41.9227 46.2995 41.7175L48.2044 38.7699L50.454 40.2232L49.0829 42.3415C48.7463 42.867 48.1223 43.1051 47.2191 43.0558C46.316 43.0065 45.4046 42.6781 44.4686 42.0787C43.549 41.4794 42.8758 40.7815 42.4488 39.9769C42.0301 39.1722 41.989 38.5072 42.3257 37.9817L48.4671 28.474C48.7791 27.9895 49.3374 27.7597 50.1338 27.7679C50.2077 27.7679 50.2652 27.7597 50.3391 27.7679C50.5608 27.7843 50.7825 27.8089 51.0041 27.8582C51.6938 27.9978 52.3835 28.2933 53.0896 28.7449C54.0256 29.3525 54.6989 30.0504 55.1094 30.855C55.4542 31.5201 55.5199 32.0784 55.3475 32.5546C55.3147 32.6531 55.2818 32.7598 55.2161 32.8502L55.0519 33.0965L53.845 34.9685L51.5953 33.5152L53.1717 31.0685L53.4919 30.5676C53.6233 30.3624 53.6315 30.1161 53.5083 29.8287C53.3852 29.5413 53.1635 29.295 52.8515 29.098C52.5395 28.8927 52.2275 28.8024 51.9155 28.8024C51.8991 28.8024 51.8827 28.8106 51.8662 28.8106C51.6199 28.827 51.4393 28.9091 51.3079 29.0651C51.2915 29.0898 51.2587 29.098 51.2422 29.1226L51.2587 29.1062ZM66.9818 47.2103L64.3216 45.4861L60.1588 51.9231L61.9816 53.1054L64.3133 49.501L66.563 50.9543L64.0096 54.8953L56.9896 50.3549L57.2113 50.0183L57.9092 50.4699L58.4921 49.5749L55.873 47.8836L57.5315 39.903L53.6233 45.9459L54.3212 46.3975L54.0995 46.7341L50.454 44.3777L50.6757 44.041L51.3736 44.4926L56.965 35.8388L57.2934 35.3379L58.7548 33.0718L59.4363 32.0127L58.7384 31.5611L58.9601 31.2245L62.6056 33.5809L62.3839 33.9175L61.686 33.4659L60.635 35.0998L59.1736 37.3659L58.8452 37.8668L58.0077 39.164L59.3624 38.4251L59.8879 38.1377L62.2525 36.8487L64.7813 35.4693L64.0835 35.0177L64.3051 34.6811L66.407 36.0358L66.1853 36.3725L65.4874 35.9209L62.778 37.407L60.4134 38.696L60.1917 38.8192L60.1096 39.2215L58.1226 48.8524L58.7302 49.2383L63.1146 42.4564L63.443 41.9556L64.9045 39.6895L65.9965 37.9981L65.2986 37.5466L65.5203 37.2099L72.5403 41.7503L70.1838 45.3958L69.9868 45.6996L67.7371 44.2463L68.3036 43.376L70.0689 40.6419L68.2462 39.4596L66.7847 41.7257L65.3232 43.9918L64.9948 44.4926L64.5679 45.1577L67.1788 46.8408L67.2281 46.8737V46.8901L67.0064 47.2185L66.9818 47.2103ZM71.5796 58.9923L72.2775 59.4439L72.0558 59.7806L68.4104 57.4241L68.6321 57.0875L69.33 57.5391L72.7784 52.2105L73.1068 51.7096L74.5682 49.4436L77.4009 45.0674L76.3828 44.4105L74.051 48.0149L72.0312 46.7095L71.9819 46.6766V46.6602L74.5354 42.7274L82.9594 48.1709L80.4059 52.112L78.3369 50.7737L80.6686 47.1692L79.6505 46.5124L76.4484 51.4633L74.987 53.7294L74.6586 54.2303L71.5796 58.9841V58.9923Z" fill="#FBE28A"/>
</svg>
