<svg width="21" height="21" viewBox="0 0 21 21" fill="none" xmlns="http://www.w3.org/2000/svg">
<path d="M5.93912 0.880019C5.41154 0.878518 4.91771 0.99921 4.36984 1.27277H4.37001C2.34049 2.28689 0.598438 5.04305 0.514934 7.34252L2.27627 7.93581C2.45851 5.35653 4.25684 2.58596 6.54941 1.4403H6.5495C6.72996 1.34994 6.91521 1.26925 7.10444 1.19858L6.16754 0.888104C6.0915 0.882971 6.01534 0.880275 5.93912 0.880019ZM8.43667 1.72144C7.99567 1.71769 7.4757 1.85034 6.90363 2.13582L6.9038 2.13565C4.87386 3.15003 3.13159 5.90781 3.05066 8.19674L9.63692 10.4155C9.79959 7.8225 11.6065 5.02392 13.9137 3.87105H13.9138L13.9139 3.87093C14.0896 3.78294 14.2699 3.70412 14.4539 3.6348L8.79131 1.75791C8.67454 1.73451 8.55576 1.72233 8.43663 1.72153L8.43667 1.72144ZM15.8009 4.15207C15.36 4.14832 14.8401 4.28093 14.2681 4.56632L14.2679 4.56641C12.2233 5.5882 10.4704 8.37857 10.4131 10.677L12.3578 11.3321C12.5226 8.7404 14.3286 5.94457 16.6343 4.79241C16.8193 4.69961 17.0094 4.61738 17.2038 4.54611L16.0866 4.17587C15.9922 4.16082 15.8967 4.15288 15.801 4.15211L15.8009 4.15207ZM18.4759 5.06951C18.0437 5.07339 17.5459 5.20925 16.9887 5.48768C15.0039 6.47955 13.2943 9.1379 13.1434 11.3952L20.49 8.3226C20.473 6.69685 20.0374 5.76774 19.4624 5.36024C19.3638 5.29039 19.2572 5.2325 19.1446 5.18783L19.1442 5.18924L18.9449 5.12323C18.7985 5.08627 18.6421 5.06793 18.4759 5.06947L18.4759 5.06951ZM0.511483 8.16403L0.51001 15.9775L2.26069 16.5807V8.7534L0.511483 8.16411V8.16403ZM3.04733 9.01829V16.8517L9.62505 19.1175V11.2341L8.40224 10.8221V15.7994L4.149 14.379V9.38941L3.04733 9.01829ZM20.4813 9.17178L13.1605 12.2335V20.12L20.4813 17.0567V9.17174L20.4813 9.17178ZM4.93569 9.65446V13.8198L7.61569 14.7148V10.5572L4.93573 9.65442L4.93569 9.65446ZM6.25332 10.8546C6.66179 10.8546 6.99294 11.1824 6.99294 11.5869C6.99294 11.8511 6.8511 12.082 6.6391 12.2108V13.3998H5.85246V12.2018C5.64884 12.0713 5.51373 11.845 5.51373 11.5869C5.51373 11.1824 5.84485 10.8546 6.25332 10.8546ZM10.4116 11.4991V19.3885L12.374 20.0645V12.1602L10.4115 11.4991H10.4116Z" fill="white"/>
</svg>
