<svg width="41" height="24" viewBox="0 0 41 24" fill="none" xmlns="http://www.w3.org/2000/svg">
<path d="M38.6972 23.5528H34.3175C32.6612 23.5528 32.1622 22.2544 29.1931 19.3788C26.5983 16.9583 25.5024 16.6574 24.846 16.6574C23.9382 16.6574 23.6906 16.8988 23.6906 18.1082V21.92C23.6906 22.951 23.3452 23.5547 20.5623 23.5547C17.8625 23.3791 15.2444 22.5853 12.9236 21.2385C10.6029 19.8918 8.64595 18.0306 7.21395 15.8084C3.815 11.7117 1.44934 6.90458 0.304688 1.76856C0.304687 1.13326 0.554189 0.557396 1.80553 0.557396H6.1814C7.30608 0.557396 7.71104 1.04223 8.15246 2.16238C10.2771 8.21449 13.9025 13.479 15.3746 13.479C15.9388 13.479 16.1845 13.2375 16.1845 11.8759V5.64169C15.9983 2.79768 14.438 2.55805 14.438 1.52893C14.4577 1.25742 14.586 1.00406 14.7957 0.822651C15.0053 0.641245 15.2798 0.546089 15.5607 0.557396H22.4393C23.3797 0.557396 23.6906 1.01065 23.6906 2.09922V10.5142C23.6906 11.4226 24.0937 11.7235 24.3777 11.7235C24.942 11.7235 25.3757 11.4226 26.4102 10.4232C28.6267 7.80518 30.4382 4.88919 31.7879 1.7667C31.9254 1.3914 32.1863 1.07008 32.5305 0.851994C32.8747 0.633904 33.2833 0.531072 33.6937 0.559254H38.0715C39.3843 0.559254 39.6626 1.19456 39.3843 2.10108C37.7916 5.55308 35.8214 8.83003 33.5075 11.8759C33.0354 12.5725 32.8473 12.9347 33.5075 13.752C33.9413 14.3873 35.4767 15.6282 36.5073 16.8078C38.0082 18.2568 39.2538 19.9323 40.1961 21.7677C40.5723 22.9491 39.9466 23.5528 38.6972 23.5528Z" fill="white"/>
</svg>
